<svg width="21" height="22" viewBox="0 0 21 22" fill="none" xmlns="http://www.w3.org/2000/svg">
<path d="M12.18 18.59C11.1462 19.69 9.96154 20.823 8.61539 22C2.87538 16.995 0 12.672 0 9.02C0 3.542 4.09231 0 8.61539 0C12.9231 0 16.8431 3.212 17.1985 8.25H21L16.1538 13.2L11.3077 8.25H15.0446C14.7 4.664 11.9862 2.2 8.61539 2.2C5.00769 2.2 2.15385 5.027 2.15385 9.02C2.15385 11.594 4.25385 15.004 8.61539 19.074C9.30462 18.425 9.94 17.798 10.5215 17.193C10.332 16.8111 10.2325 16.3892 10.2308 15.961C10.2308 15.2317 10.5144 14.5322 11.0193 14.0165C11.5242 13.5007 12.209 13.211 12.9231 13.211C13.6371 13.211 14.3219 13.5007 14.8268 14.0165C15.3317 14.5322 15.6154 15.2317 15.6154 15.961C15.615 16.3864 15.5177 16.8058 15.3312 17.1861C15.1447 17.5665 14.8741 17.8973 14.5408 18.1523C14.2075 18.4074 13.8207 18.5797 13.411 18.6557C13.0012 18.7316 12.5798 18.7091 12.18 18.59Z" fill="#575A89"/>
</svg>
